<svg width="641" height="245" viewBox="0 0 641 245" fill="none" xmlns="http://www.w3.org/2000/svg">
<path d="M9.528 56C7.944 56 6.48 55.616 5.136 54.848C3.84 54.08 2.808 53.048 2.04 51.752C1.272 50.408 0.888 48.944 0.888 47.36V4.16H6.72V47.36C6.72 48.128 6.984 48.8 7.512 49.376C8.088 49.904 8.76 50.168 9.528 50.168H44.088C44.856 50.168 45.504 49.904 46.032 49.376C46.608 48.8 46.896 48.128 46.896 47.36V4.16H52.728V47.36C52.728 48.944 52.344 50.408 51.576 51.752C50.808 53.048 49.752 54.08 48.408 54.848C47.112 55.616 45.672 56 44.088 56H9.528ZM60.513 56V14.24H94.353C95.937 14.24 97.377 14.648 98.673 15.464C100.017 16.232 101.073 17.288 101.841 18.632C102.657 19.928 103.065 21.368 103.065 22.952V56H97.161V22.952C97.161 22.184 96.873 21.536 96.297 21.008C95.769 20.432 95.121 20.144 94.353 20.144H69.297C68.529 20.144 67.857 20.432 67.281 21.008C66.705 21.536 66.417 22.184 66.417 22.952V56H60.513ZM119.214 56C117.63 56 116.166 55.616 114.822 54.848C113.526 54.032 112.47 52.976 111.654 51.68C110.886 50.336 110.502 48.872 110.502 47.288V0.559997H116.406V47.288C116.406 48.056 116.67 48.728 117.198 49.304C117.774 49.832 118.446 50.096 119.214 50.096H126.27V56H119.214ZM139.814 56C138.23 56 136.766 55.616 135.422 54.848C134.126 54.032 133.07 52.976 132.254 51.68C131.486 50.336 131.102 48.872 131.102 47.288V22.952C131.102 21.368 131.486 19.928 132.254 18.632C133.07 17.288 134.126 16.232 135.422 15.464C136.766 14.648 138.23 14.24 139.814 14.24H164.87C166.502 14.24 167.966 14.648 169.262 15.464C170.606 16.232 171.662 17.288 172.43 18.632C173.246 19.928 173.654 21.368 173.654 22.952V38.072H137.006V47.288C137.006 48.056 137.27 48.728 137.798 49.304C138.374 49.832 139.046 50.096 139.814 50.096H173.654V56H139.814ZM137.006 32.168H167.678V22.952C167.678 22.184 167.39 21.536 166.814 21.008C166.286 20.432 165.638 20.144 164.87 20.144H139.814C139.046 20.144 138.374 20.432 137.798 21.008C137.27 21.536 137.006 22.184 137.006 22.952V32.168ZM189.737 56C188.153 56 186.689 55.616 185.345 54.848C184.049 54.032 182.993 52.976 182.177 51.68C181.409 50.336 181.025 48.872 181.025 47.288V32.168H217.601V22.952C217.601 22.184 217.313 21.536 216.737 21.008C216.209 20.432 215.561 20.144 214.793 20.144H181.025V14.24H214.793C216.425 14.24 217.889 14.648 219.185 15.464C220.529 16.232 221.585 17.288 222.353 18.632C223.169 19.928 223.577 21.368 223.577 22.952V56H189.737ZM189.737 50.096H217.601V38.072H186.929V47.288C186.929 48.056 187.193 48.728 187.721 49.304C188.297 49.832 188.969 50.096 189.737 50.096ZM238.035 56C236.451 56 234.987 55.616 233.643 54.848C232.347 54.032 231.291 52.976 230.475 51.68C229.707 50.336 229.323 48.872 229.323 47.288V46.712H235.227V47.288C235.227 48.056 235.491 48.728 236.019 49.304C236.595 49.832 237.267 50.096 238.035 50.096H263.091C263.859 50.096 264.507 49.832 265.035 49.304C265.611 48.728 265.899 48.056 265.899 47.288V40.88C265.899 40.112 265.611 39.464 265.035 38.936C264.507 38.36 263.859 38.072 263.091 38.072H238.035C236.451 38.072 234.987 37.688 233.643 36.92C232.347 36.104 231.291 35.048 230.475 33.752C229.707 32.408 229.323 30.944 229.323 29.36V22.952C229.323 21.368 229.707 19.928 230.475 18.632C231.291 17.288 232.347 16.232 233.643 15.464C234.987 14.648 236.451 14.24 238.035 14.24H263.091C264.723 14.24 266.187 14.648 267.483 15.464C268.827 16.232 269.883 17.288 270.651 18.632C271.467 19.928 271.875 21.368 271.875 22.952V23.528H265.899V22.952C265.899 22.184 265.611 21.536 265.035 21.008C264.507 20.432 263.859 20.144 263.091 20.144H238.035C237.267 20.144 236.595 20.432 236.019 21.008C235.491 21.536 235.227 22.184 235.227 22.952V29.36C235.227 30.128 235.491 30.8 236.019 31.376C236.595 31.904 237.267 32.168 238.035 32.168H263.091C264.723 32.168 266.187 32.576 267.483 33.392C268.827 34.16 269.883 35.216 270.651 36.56C271.467 37.856 271.875 39.296 271.875 40.88V47.288C271.875 48.872 271.467 50.336 270.651 51.68C269.883 52.976 268.827 54.032 267.483 54.848C266.187 55.616 264.723 56 263.091 56H238.035ZM279.115 56V0.559997H285.019V14.24H312.955C314.539 14.24 315.979 14.648 317.275 15.464C318.619 16.232 319.675 17.288 320.443 18.632C321.259 19.928 321.667 21.368 321.667 22.952V56H315.763V22.952C315.763 22.184 315.475 21.536 314.899 21.008C314.371 20.432 313.723 20.144 312.955 20.144H287.899C287.131 20.144 286.459 20.432 285.883 21.008C285.307 21.536 285.019 22.184 285.019 22.952V56H279.115ZM367.418 56V9.992H344.378V4.16H396.218V9.992H373.25V56H367.418ZM401.458 56V0.559997H407.362V14.24H435.298C436.882 14.24 438.322 14.648 439.618 15.464C440.962 16.232 442.018 17.288 442.786 18.632C443.602 19.928 444.01 21.368 444.01 22.952V56H438.106V22.952C438.106 22.184 437.818 21.536 437.242 21.008C436.714 20.432 436.066 20.144 435.298 20.144H410.242C409.474 20.144 408.802 20.432 408.226 21.008C407.65 21.536 407.362 22.184 407.362 22.952V56H401.458ZM458.048 56C456.464 56 455 55.616 453.656 54.848C452.36 54.032 451.304 52.976 450.488 51.68C449.72 50.336 449.336 48.872 449.336 47.288V22.952C449.336 21.368 449.72 19.928 450.488 18.632C451.304 17.288 452.36 16.232 453.656 15.464C455 14.648 456.464 14.24 458.048 14.24H483.104C484.736 14.24 486.2 14.648 487.496 15.464C488.84 16.232 489.896 17.288 490.664 18.632C491.48 19.928 491.888 21.368 491.888 22.952V38.072H455.24V47.288C455.24 48.056 455.504 48.728 456.032 49.304C456.608 49.832 457.28 50.096 458.048 50.096H491.888V56H458.048ZM455.24 32.168H485.912V22.952C485.912 22.184 485.624 21.536 485.048 21.008C484.52 20.432 483.872 20.144 483.104 20.144H458.048C457.28 20.144 456.608 20.432 456.032 21.008C455.504 21.536 455.24 22.184 455.24 22.952V32.168ZM1.032 142V90.16H9.024L47.04 135.376V90.16H52.872V142H44.88L6.864 96.784V142H1.032ZM69.2903 142C67.7063 142 66.2423 141.616 64.8983 140.848C63.6023 140.032 62.5463 138.976 61.7303 137.68C60.9623 136.336 60.5783 134.872 60.5783 133.288V108.952C60.5783 107.368 60.9623 105.928 61.7303 104.632C62.5463 103.288 63.6023 102.232 64.8983 101.464C66.2423 100.648 67.7063 100.24 69.2903 100.24H94.3463C95.9783 100.24 97.4423 100.648 98.7383 101.464C100.082 102.232 101.138 103.288 101.906 104.632C102.722 105.928 103.13 107.368 103.13 108.952V124.072H66.4823V133.288C66.4823 134.056 66.7463 134.728 67.2743 135.304C67.8503 135.832 68.5223 136.096 69.2903 136.096H103.13V142H69.2903ZM66.4823 118.168H97.1543V108.952C97.1543 108.184 96.8663 107.536 96.2903 107.008C95.7623 106.432 95.1143 106.144 94.3463 106.144H69.2903C68.5223 106.144 67.8503 106.432 67.2743 107.008C66.7463 107.536 66.4823 108.184 66.4823 108.952V118.168ZM108.875 142V141.928L126.299 120.76L108.875 100.312V100.24H116.651L130.187 116.08L143.795 100.24H151.499V100.312L134.075 120.76L151.571 141.928V142H143.795L130.187 125.296L116.651 142H108.875ZM167.942 142C166.31 142 164.822 141.616 163.478 140.848C162.182 140.032 161.15 138.976 160.382 137.68C159.614 136.336 159.23 134.872 159.23 133.288V86.56H165.134V100.24H183.206V106.144H165.134V133.288C165.134 134.056 165.398 134.728 165.926 135.304C166.502 135.832 167.174 136.096 167.942 136.096H183.206V142H167.942ZM217.235 142C215.651 142 214.187 141.616 212.843 140.848C211.547 140.08 210.515 139.048 209.747 137.752C208.979 136.408 208.595 134.944 208.595 133.36V98.8C208.595 97.216 208.979 95.776 209.747 94.48C210.515 93.136 211.547 92.08 212.843 91.312C214.187 90.544 215.651 90.16 217.235 90.16H251.795C253.379 90.16 254.819 90.544 256.115 91.312C257.459 92.08 258.515 93.136 259.283 94.48C260.051 95.776 260.435 97.216 260.435 98.8V100.888H254.603V98.8C254.603 98.032 254.315 97.384 253.739 96.856C253.211 96.28 252.563 95.992 251.795 95.992H217.235C216.467 95.992 215.795 96.28 215.219 96.856C214.691 97.384 214.427 98.032 214.427 98.8V133.36C214.427 134.128 214.691 134.8 215.219 135.376C215.795 135.904 216.467 136.168 217.235 136.168H251.795C252.563 136.168 253.211 135.904 253.739 135.376C254.315 134.8 254.603 134.128 254.603 133.36V120.544H241.787V114.64H260.435V133.36C260.435 134.944 260.051 136.408 259.283 137.752C258.515 139.048 257.459 140.08 256.115 140.848C254.819 141.616 253.379 142 251.795 142H217.235ZM276.712 142C275.128 142 273.664 141.616 272.32 140.848C271.024 140.032 269.968 138.976 269.152 137.68C268.384 136.336 268 134.872 268 133.288V108.952C268 107.368 268.384 105.928 269.152 104.632C269.968 103.288 271.024 102.232 272.32 101.464C273.664 100.648 275.128 100.24 276.712 100.24H301.768C303.4 100.24 304.864 100.648 306.16 101.464C307.504 102.232 308.56 103.288 309.328 104.632C310.144 105.928 310.552 107.368 310.552 108.952V124.072H273.904V133.288C273.904 134.056 274.168 134.728 274.696 135.304C275.272 135.832 275.944 136.096 276.712 136.096H310.552V142H276.712ZM273.904 118.168H304.576V108.952C304.576 108.184 304.288 107.536 303.712 107.008C303.184 106.432 302.536 106.144 301.768 106.144H276.712C275.944 106.144 275.272 106.432 274.696 107.008C274.168 107.536 273.904 108.184 273.904 108.952V118.168ZM318.068 142V100.24H351.908C353.492 100.24 354.932 100.648 356.228 101.464C357.572 102.232 358.628 103.288 359.396 104.632C360.212 105.928 360.62 107.368 360.62 108.952V142H354.716V108.952C354.716 108.184 354.428 107.536 353.852 107.008C353.324 106.432 352.676 106.144 351.908 106.144H326.852C326.084 106.144 325.412 106.432 324.836 107.008C324.26 107.536 323.972 108.184 323.972 108.952V142H318.068ZM376.697 142C375.113 142 373.649 141.616 372.305 140.848C371.009 140.032 369.953 138.976 369.137 137.68C368.369 136.336 367.985 134.872 367.985 133.288V108.952C367.985 107.368 368.369 105.928 369.137 104.632C369.953 103.288 371.009 102.232 372.305 101.464C373.649 100.648 375.113 100.24 376.697 100.24H401.753C403.385 100.24 404.849 100.648 406.145 101.464C407.489 102.232 408.545 103.288 409.312 104.632C410.129 105.928 410.537 107.368 410.537 108.952V124.072H373.889V133.288C373.889 134.056 374.153 134.728 374.681 135.304C375.257 135.832 375.929 136.096 376.697 136.096H410.537V142H376.697ZM373.889 118.168H404.561V108.952C404.561 108.184 404.273 107.536 403.697 107.008C403.169 106.432 402.521 106.144 401.753 106.144H376.697C375.929 106.144 375.257 106.432 374.681 107.008C374.153 107.536 373.889 108.184 373.889 108.952V118.168ZM417.557 142V108.952C417.557 107.368 417.941 105.928 418.709 104.632C419.525 103.288 420.581 102.232 421.877 101.464C423.221 100.648 424.685 100.24 426.269 100.24H449.741V106.144H426.269C425.501 106.144 424.829 106.432 424.253 107.008C423.725 107.536 423.461 108.184 423.461 108.952V142H417.557ZM463.112 142C461.528 142 460.064 141.616 458.72 140.848C457.424 140.032 456.368 138.976 455.552 137.68C454.784 136.336 454.4 134.872 454.4 133.288V118.168H490.976V108.952C490.976 108.184 490.688 107.536 490.112 107.008C489.584 106.432 488.936 106.144 488.168 106.144H454.4V100.24H488.168C489.8 100.24 491.264 100.648 492.56 101.464C493.904 102.232 494.96 103.288 495.728 104.632C496.544 105.928 496.952 107.368 496.952 108.952V142H463.112ZM463.112 136.096H490.976V124.072H460.304V133.288C460.304 134.056 460.568 134.728 461.096 135.304C461.672 135.832 462.344 136.096 463.112 136.096ZM513.176 142C511.544 142 510.056 141.616 508.712 140.848C507.416 140.032 506.384 138.976 505.616 137.68C504.848 136.336 504.464 134.872 504.464 133.288V86.56H510.368V100.24H528.44V106.144H510.368V133.288C510.368 134.056 510.632 134.728 511.16 135.304C511.736 135.832 512.408 136.096 513.176 136.096H528.44V142H513.176ZM534.275 142V100.24H540.179V142H534.275ZM534.275 92.464V86.56H540.179V92.464H534.275ZM557.892 142C556.308 142 554.844 141.616 553.5 140.848C552.204 140.032 551.148 138.976 550.332 137.68C549.564 136.336 549.18 134.872 549.18 133.288V108.952C549.18 107.368 549.564 105.928 550.332 104.632C551.148 103.288 552.204 102.232 553.5 101.464C554.844 100.648 556.308 100.24 557.892 100.24H582.948C584.58 100.24 586.044 100.648 587.34 101.464C588.684 102.232 589.74 103.288 590.508 104.632C591.324 105.928 591.732 107.368 591.732 108.952V133.288C591.732 134.872 591.324 136.336 590.508 137.68C589.74 138.976 588.684 140.032 587.34 140.848C586.044 141.616 584.58 142 582.948 142H557.892ZM557.892 136.096H582.948C583.716 136.096 584.364 135.832 584.892 135.304C585.468 134.728 585.756 134.056 585.756 133.288V108.952C585.756 108.184 585.468 107.536 584.892 107.008C584.364 106.432 583.716 106.144 582.948 106.144H557.892C557.124 106.144 556.452 106.432 555.876 107.008C555.348 107.536 555.084 108.184 555.084 108.952V133.288C555.084 134.056 555.348 134.728 555.876 135.304C556.452 135.832 557.124 136.096 557.892 136.096ZM598.193 142V100.24H632.033C633.617 100.24 635.057 100.648 636.353 101.464C637.697 102.232 638.753 103.288 639.521 104.632C640.337 105.928 640.745 107.368 640.745 108.952V142H634.841V108.952C634.841 108.184 634.553 107.536 633.977 107.008C633.449 106.432 632.801 106.144 632.033 106.144H606.977C606.209 106.144 605.537 106.432 604.961 107.008C604.385 107.536 604.097 108.184 604.097 108.952V142H598.193ZM9.528 228C7.944 228 6.48 227.616 5.136 226.848C3.84 226.08 2.808 225.048 2.04 223.752C1.272 222.408 0.888 220.944 0.888 219.36V184.8C0.888 183.216 1.272 181.776 2.04 180.48C2.808 179.136 3.84 178.08 5.136 177.312C6.48 176.544 7.944 176.16 9.528 176.16H44.088C45.672 176.16 47.112 176.544 48.408 177.312C49.752 178.08 50.808 179.136 51.576 180.48C52.344 181.776 52.728 183.216 52.728 184.8V219.36C52.728 220.944 52.344 222.408 51.576 223.752C50.808 225.048 49.752 226.08 48.408 226.848C47.112 227.616 45.672 228 44.088 228H9.528ZM9.528 222.168H44.088C44.856 222.168 45.504 221.904 46.032 221.376C46.608 220.8 46.896 220.128 46.896 219.36V184.8C46.896 184.032 46.608 183.384 46.032 182.856C45.504 182.28 44.856 181.992 44.088 181.992H9.528C8.76 181.992 8.088 182.28 7.512 182.856C6.984 183.384 6.72 184.032 6.72 184.8V219.36C6.72 220.128 6.984 220.8 7.512 221.376C8.088 221.904 8.76 222.168 9.528 222.168ZM60.441 228V181.272C60.441 179.64 60.825 178.176 61.593 176.88C62.361 175.536 63.393 174.48 64.689 173.712C66.033 172.944 67.521 172.56 69.153 172.56H84.417V178.464H69.153C68.385 178.464 67.713 178.752 67.137 179.328C66.609 179.856 66.345 180.504 66.345 181.272V186.24H84.417V192.144H66.345V228H60.441ZM118.235 228C116.651 228 115.187 227.616 113.843 226.848C112.547 226.08 111.515 225.048 110.747 223.752C109.979 222.408 109.595 220.944 109.595 219.36V184.8C109.595 183.216 109.979 181.776 110.747 180.48C111.515 179.136 112.547 178.08 113.843 177.312C115.187 176.544 116.651 176.16 118.235 176.16H152.795C154.379 176.16 155.819 176.544 157.115 177.312C158.459 178.08 159.515 179.136 160.283 180.48C161.051 181.776 161.435 183.216 161.435 184.8V186.888H155.603V184.8C155.603 184.032 155.315 183.384 154.739 182.856C154.211 182.28 153.563 181.992 152.795 181.992H118.235C117.467 181.992 116.795 182.28 116.219 182.856C115.691 183.384 115.427 184.032 115.427 184.8V219.36C115.427 220.128 115.691 220.8 116.219 221.376C116.795 221.904 117.467 222.168 118.235 222.168H152.795C153.563 222.168 154.211 221.904 154.739 221.376C155.315 220.8 155.603 220.128 155.603 219.36V206.544H142.787V200.64H161.435V219.36C161.435 220.944 161.051 222.408 160.283 223.752C159.515 225.048 158.459 226.08 157.115 226.848C155.819 227.616 154.379 228 152.795 228H118.235ZM177.784 228C176.2 228 174.736 227.616 173.392 226.848C172.096 226.032 171.04 224.976 170.224 223.68C169.456 222.336 169.072 220.872 169.072 219.288V204.168H205.648V194.952C205.648 194.184 205.36 193.536 204.784 193.008C204.256 192.432 203.608 192.144 202.84 192.144H169.072V186.24H202.84C204.472 186.24 205.936 186.648 207.232 187.464C208.576 188.232 209.632 189.288 210.4 190.632C211.216 191.928 211.624 193.368 211.624 194.952V228H177.784ZM177.784 222.096H205.648V210.072H174.976V219.288C174.976 220.056 175.24 220.728 175.768 221.304C176.344 221.832 177.016 222.096 177.784 222.096ZM217.802 228V186.24H272.954C274.586 186.24 276.05 186.648 277.346 187.464C278.69 188.232 279.746 189.288 280.514 190.632C281.282 191.928 281.666 193.368 281.666 194.952V228H275.834V194.952C275.834 194.184 275.546 193.536 274.97 193.008C274.394 192.432 273.722 192.144 272.954 192.144H255.602C254.834 192.144 254.162 192.432 253.586 193.008C253.058 193.536 252.794 194.184 252.794 194.952V228H246.818V194.952C246.818 194.184 246.53 193.536 245.954 193.008C245.426 192.432 244.778 192.144 244.01 192.144H226.586C225.818 192.144 225.146 192.432 224.57 193.008C224.042 193.536 223.778 194.184 223.778 194.952V228H217.802ZM288.041 228V186.24H293.945V228H288.041ZM288.041 178.464V172.56H293.945V178.464H288.041ZM302.107 228V186.24H335.947C337.531 186.24 338.971 186.648 340.267 187.464C341.611 188.232 342.667 189.288 343.435 190.632C344.251 191.928 344.659 193.368 344.659 194.952V228H338.755V194.952C338.755 194.184 338.467 193.536 337.891 193.008C337.363 192.432 336.715 192.144 335.947 192.144H310.891C310.123 192.144 309.451 192.432 308.875 193.008C308.299 193.536 308.011 194.184 308.011 194.952V228H302.107ZM359.008 244.488V238.512H385.072C385.84 238.512 386.488 238.224 387.016 237.648C387.592 237.12 387.88 236.472 387.88 235.704V228H360.016C358.432 228 356.968 227.616 355.624 226.848C354.328 226.032 353.272 224.976 352.456 223.68C351.688 222.336 351.304 220.872 351.304 219.288V194.952C351.304 193.368 351.688 191.928 352.456 190.632C353.272 189.288 354.328 188.232 355.624 187.464C356.968 186.648 358.432 186.24 360.016 186.24H385.072C386.704 186.24 388.168 186.648 389.464 187.464C390.808 188.232 391.864 189.288 392.632 190.632C393.4 191.928 393.784 193.368 393.784 194.952V235.704C393.784 237.336 393.4 238.8 392.632 240.096C391.864 241.44 390.808 242.496 389.464 243.264C388.168 244.08 386.704 244.488 385.072 244.488H359.008ZM360.016 222.096H385.072C385.84 222.096 386.488 221.832 387.016 221.304C387.592 220.728 387.88 220.056 387.88 219.288V194.952C387.88 194.184 387.592 193.536 387.016 193.008C386.488 192.432 385.84 192.144 385.072 192.144H360.016C359.248 192.144 358.576 192.432 358 193.008C357.472 193.536 357.208 194.184 357.208 194.952V219.288C357.208 220.056 357.472 220.728 358 221.304C358.576 221.832 359.248 222.096 360.016 222.096Z" fill="white"/>
</svg>
